<?xml version="1.0" encoding="utf-8"?>
<!-- Generator: Adobe Illustrator 21.0.0, SVG Export Plug-In . SVG Version: 6.00 Build 0)  -->
<svg version="1.1" id="Layer_1" xmlns="http://www.w3.org/2000/svg" xmlns:xlink="http://www.w3.org/1999/xlink" x="0px" y="0px"
	 viewBox="0 0 3105.1 1661.2" xml:space="preserve">
<style type="text/css">
	.st0{fill:url(#SVGID_1_);stroke:url(#SVGID_2_);stroke-width:6.0605;stroke-miterlimit:10;}
	.st1{fill:url(#SVGID_3_);stroke:url(#SVGID_4_);stroke-width:6.0605;stroke-miterlimit:10;}
	.st2{fill:url(#SVGID_5_);stroke:url(#SVGID_6_);stroke-width:6.0605;stroke-miterlimit:10;}
	.st3{fill:url(#SVGID_7_);stroke:url(#SVGID_8_);stroke-width:6.0605;stroke-miterlimit:10;}
	.st4{fill:url(#SVGID_9_);stroke:url(#SVGID_10_);stroke-width:6.0605;stroke-miterlimit:10;}
	.st5{fill:url(#SVGID_11_);stroke:url(#SVGID_12_);stroke-width:6.0605;stroke-miterlimit:10;}
	.st6{fill:url(#SVGID_13_);stroke:url(#SVGID_14_);stroke-width:6.0605;stroke-miterlimit:10;}
	.st7{fill:url(#SVGID_15_);stroke:url(#SVGID_16_);stroke-width:6.0605;stroke-miterlimit:10;}
	.st8{fill:url(#SVGID_17_);stroke:url(#SVGID_18_);stroke-width:6.0605;stroke-miterlimit:10;}
	.st9{fill:url(#SVGID_19_);stroke:url(#SVGID_20_);stroke-width:6.0605;stroke-miterlimit:10;}
	.st10{fill:url(#SVGID_21_);stroke:url(#SVGID_22_);stroke-width:6.0605;stroke-miterlimit:10;}
</style>
<g>
	<g>
		<linearGradient id="SVGID_1_" gradientUnits="userSpaceOnUse" x1="108.4033" y1="830.6109" x2="1246.0219" y2="830.6109">
			<stop  offset="0" style="stop-color:#379BED"/>
			<stop  offset="0.9966" style="stop-color:#1AAD8A"/>
		</linearGradient>
		<linearGradient id="SVGID_2_" gradientUnits="userSpaceOnUse" x1="104.9043" y1="830.6109" x2="1251.2704" y2="830.6109">
			<stop  offset="0" style="stop-color:#379BED"/>
			<stop  offset="0.9966" style="stop-color:#1AAD8A"/>
		</linearGradient>
		<polygon class="st0" points="1199.1,1044.7 1021,1353.1 417.7,1353.1 116,830.6 417.7,308.1 1021,308.1 1238.4,684.7 1246,684.7 
			1024.8,301.5 413.9,301.5 108.4,830.6 413.9,1359.7 1024.8,1359.7 1206.7,1044.7 		"/>
		<linearGradient id="SVGID_3_" gradientUnits="userSpaceOnUse" x1="90.49" y1="830.6104" x2="1257.0397" y2="830.6104">
			<stop  offset="0" style="stop-color:#379BED"/>
			<stop  offset="0.9966" style="stop-color:#1AAD8A"/>
		</linearGradient>
		<linearGradient id="SVGID_4_" gradientUnits="userSpaceOnUse" x1="86.9958" y1="830.6104" x2="1261.9846" y2="830.6104">
			<stop  offset="0" style="stop-color:#379BED"/>
			<stop  offset="0.9966" style="stop-color:#1AAD8A"/>
		</linearGradient>
		<polygon class="st1" points="1222.7,1044.7 1001.8,1384.9 380.5,1352.4 98.1,798.1 436.9,276.3 1058.2,308.9 1249.7,684.7 
			1257,684.7 1062.3,302.5 433.5,269.5 90.5,797.7 376.4,1358.7 1005.2,1391.7 1230.5,1044.7 		"/>
		<linearGradient id="SVGID_5_" gradientUnits="userSpaceOnUse" x1="73.8223" y1="830.6115" x2="1269.6704" y2="830.6115">
			<stop  offset="0" style="stop-color:#379BED"/>
			<stop  offset="0.9966" style="stop-color:#1AAD8A"/>
		</linearGradient>
		<linearGradient id="SVGID_6_" gradientUnits="userSpaceOnUse" x1="70.3424" y1="830.6115" x2="1274.3365" y2="830.6115">
			<stop  offset="0" style="stop-color:#379BED"/>
			<stop  offset="0.9966" style="stop-color:#1AAD8A"/>
		</linearGradient>
		<polygon class="st2" points="1250.5,1044.7 980.2,1416.6 342.3,1349.6 81.4,763.6 458.4,244.6 1096.4,311.6 1262.5,684.7 
			1269.7,684.7 1100.8,305.5 455.3,237.7 73.8,762.8 337.8,1355.7 983.3,1423.6 1258.6,1044.7 		"/>
		<linearGradient id="SVGID_7_" gradientUnits="userSpaceOnUse" x1="58.5471" y1="830.6108" x2="1291.4972" y2="830.6108">
			<stop  offset="0" style="stop-color:#379BED"/>
			<stop  offset="0.9966" style="stop-color:#1AAD8A"/>
		</linearGradient>
		<linearGradient id="SVGID_8_" gradientUnits="userSpaceOnUse" x1="55.0911" y1="830.6108" x2="1297.8502" y2="830.6108">
			<stop  offset="0" style="stop-color:#379BED"/>
			<stop  offset="0.9966" style="stop-color:#1AAD8A"/>
		</linearGradient>
		<polygon class="st3" points="1283.1,1044.7 956.4,1448.1 303.1,1344.6 66,727.1 482.3,213.1 1135.6,316.6 1276.9,684.7 
			1283.9,684.7 1140.4,310.7 479.6,206 58.5,726 298.3,1350.5 959.1,1455.2 1291.5,1044.7 		"/>
		<linearGradient id="SVGID_9_" gradientUnits="userSpaceOnUse" x1="44.8057" y1="830.6104" x2="1330.1826" y2="830.6104">
			<stop  offset="0" style="stop-color:#379BED"/>
			<stop  offset="0.9966" style="stop-color:#1AAD8A"/>
		</linearGradient>
		<linearGradient id="SVGID_10_" gradientUnits="userSpaceOnUse" x1="41.3831" y1="830.6104" x2="1336.9888" y2="830.6104">
			<stop  offset="0" style="stop-color:#379BED"/>
			<stop  offset="0.9966" style="stop-color:#1AAD8A"/>
		</linearGradient>
		<polygon class="st4" points="1321.4,1044.7 930.1,1479.2 263,1337.4 52.2,688.8 508.6,182 1175.7,323.8 1293,684.7 1299.9,684.7 
			1180.8,318.1 506.2,174.8 44.8,687.2 257.9,1343.1 932.4,1486.5 1330.2,1044.7 		"/>
		<linearGradient id="SVGID_11_" gradientUnits="userSpaceOnUse" x1="32.7475" y1="830.6104" x2="1375.7952" y2="830.6104">
			<stop  offset="0" style="stop-color:#379BED"/>
			<stop  offset="0.9966" style="stop-color:#1AAD8A"/>
		</linearGradient>
		<linearGradient id="SVGID_12_" gradientUnits="userSpaceOnUse" x1="29.3677" y1="830.6104" x2="1383.1108" y2="830.6104">
			<stop  offset="0" style="stop-color:#379BED"/>
			<stop  offset="0.9966" style="stop-color:#1AAD8A"/>
		</linearGradient>
		<polygon class="st5" points="1366.5,1044.7 901.3,1509.9 222.1,1327.9 40.1,648.6 537.3,151.3 1216.6,333.4 1310.7,684.7 
			1317.5,684.7 1221.9,328 535.4,144 32.7,646.6 216.7,1333.2 903.3,1517.2 1375.8,1044.7 		"/>
		<linearGradient id="SVGID_13_" gradientUnits="userSpaceOnUse" x1="22.5198" y1="830.6105" x2="1416.1416" y2="830.6105">
			<stop  offset="0" style="stop-color:#379BED"/>
			<stop  offset="0.9966" style="stop-color:#1AAD8A"/>
		</linearGradient>
		<linearGradient id="SVGID_14_" gradientUnits="userSpaceOnUse" x1="19.192" y1="830.6105" x2="1419.4694" y2="830.6105">
			<stop  offset="0" style="stop-color:#379BED"/>
			<stop  offset="0.9966" style="stop-color:#1AAD8A"/>
		</linearGradient>
		<polygon class="st6" points="1406.8,1044.7 1408.9,1054.7 870.1,1539.9 180.5,1315.8 29.7,606.5 568.6,121.4 1258.2,345.4 
			1330.3,684.7 1337,684.7 1263.8,340.4 567,113.9 22.5,604.2 174.9,1320.9 871.7,1547.3 1416.1,1057 1413.5,1044.7 		"/>
		<linearGradient id="SVGID_15_" gradientUnits="userSpaceOnUse" x1="14.2766" y1="830.6109" x2="1424.3828" y2="830.6109">
			<stop  offset="0" style="stop-color:#379BED"/>
			<stop  offset="0.9966" style="stop-color:#1AAD8A"/>
		</linearGradient>
		<linearGradient id="SVGID_16_" gradientUnits="userSpaceOnUse" x1="11.0099" y1="830.6109" x2="1427.6494" y2="830.6109">
			<stop  offset="0" style="stop-color:#379BED"/>
			<stop  offset="0.9966" style="stop-color:#1AAD8A"/>
		</linearGradient>
		<polygon class="st7" points="1408.8,1044.7 1417.3,1098.5 836.3,1569 138.3,1301.1 21.4,562.7 602.4,92.2 1300.4,360.1 
			1351.8,684.7 1358.4,684.7 1306.2,355.3 603,85.4 601.2,84.7 14.3,560 132.4,1305.9 835.7,1575.8 837.5,1576.5 1424.4,1101.3 
			1415.4,1044.7 		"/>
		<linearGradient id="SVGID_17_" gradientUnits="userSpaceOnUse" x1="8.1781" y1="830.6109" x2="1430.4816" y2="830.6109">
			<stop  offset="0" style="stop-color:#379BED"/>
			<stop  offset="0.9966" style="stop-color:#1AAD8A"/>
		</linearGradient>
		<linearGradient id="SVGID_18_" gradientUnits="userSpaceOnUse" x1="4.9815" y1="830.6109" x2="1433.6781" y2="830.6109">
			<stop  offset="0" style="stop-color:#379BED"/>
			<stop  offset="0.9966" style="stop-color:#1AAD8A"/>
		</linearGradient>
		<polygon class="st8" points="1413.1,1044.7 1423.6,1144.2 799.9,1597.3 95.7,1283.7 15.1,517.1 638.8,64 1343,377.5 1375.3,684.7 
			1381.9,684.7 1349.1,373 638,56.4 8.2,514 89.5,1288.2 800.7,1604.8 1430.5,1147.2 1419.7,1044.7 		"/>
		<linearGradient id="SVGID_19_" gradientUnits="userSpaceOnUse" x1="4.376" y1="830.6107" x2="1434.2838" y2="830.6107">
			<stop  offset="0" style="stop-color:#379BED"/>
			<stop  offset="0.9966" style="stop-color:#1AAD8A"/>
		</linearGradient>
		<linearGradient id="SVGID_20_" gradientUnits="userSpaceOnUse" x1="1.2583" y1="830.6107" x2="1437.4015" y2="830.6107">
			<stop  offset="0" style="stop-color:#379BED"/>
			<stop  offset="0.9966" style="stop-color:#1AAD8A"/>
		</linearGradient>
		<polygon class="st9" points="1419.8,1044.7 1427.5,1191.5 760.9,1624.4 52.7,1263.5 11.1,469.8 677.7,36.9 1385.9,397.7 
			1401,684.7 1407.5,684.7 1392.4,395.5 1392.3,393.6 677.3,29.3 4.4,466.3 46.3,1265.7 46.4,1267.6 761.3,1631.9 1434.3,1194.9 
			1426.4,1044.7 		"/>
		<linearGradient id="SVGID_21_" gradientUnits="userSpaceOnUse" x1="3.0303" y1="830.6104" x2="1435.629" y2="830.6104">
			<stop  offset="0" style="stop-color:#379BED"/>
			<stop  offset="0.9966" style="stop-color:#1AAD8A"/>
		</linearGradient>
		<linearGradient id="SVGID_22_" gradientUnits="userSpaceOnUse" x1="0" y1="830.6104" x2="1438.6593" y2="830.6104">
			<stop  offset="0" style="stop-color:#379BED"/>
			<stop  offset="0.9966" style="stop-color:#1AAD8A"/>
		</linearGradient>
		<polygon class="st10" points="1429.1,1044.7 1429.1,1240.4 719.3,1650.1 9.6,1240.4 9.6,420.8 719.3,11.1 1429.1,420.8 
			1429.1,684.7 1435.6,684.7 1435.6,417.1 719.3,3.5 3,417.1 3,1244.2 719.3,1657.7 1435.6,1244.2 1435.6,1044.7 		"/>
	</g>
	<g>
		<path d="M1161.9,690.7v289.7h-38V749.2l-92.4,231.1h-33.9L904.9,750v230.3h-38V690.7h45.6l102.8,243.3l101.1-243.3H1161.9z"/>
		<path d="M1367.4,764.7c15.5,11.1,26.3,26.1,32.4,44.7v-58.5h38v229.5h-38v-58.5c-6.1,18.7-16.9,33.6-32.4,44.7
			c-15.5,11.1-34.3,16.7-56.6,16.7c-20.3,0-38.5-4.7-54.3-14.2c-15.9-9.5-28.4-23.1-37.4-40.8c-9.1-17.7-13.6-38.5-13.6-62.5
			c0-24,4.5-44.9,13.6-62.7c9.1-17.8,21.5-31.5,37.4-41c15.9-9.5,34-14.2,54.3-14.2C1333,747.9,1351.9,753.5,1367.4,764.7z
			 M1265.4,804.2c-14.1,14.9-21.1,35.5-21.1,61.7c0,26.2,7,46.7,21.1,61.6c14.1,14.9,32.8,22.4,56.2,22.4c15,0,28.5-3.5,40.3-10.4
			c11.8-7,21.1-16.8,27.8-29.5c6.7-12.7,10-27.4,10-44.1c0-16.7-3.3-31.5-10-44.3c-6.7-12.8-16-22.6-27.8-29.5
			c-11.8-6.8-25.3-10.2-40.3-10.2C1298.2,781.8,1279.5,789.3,1265.4,804.2z"/>
		<path d="M1648.5,980.3L1571.6,860h-41.4v120.4h-38V685.7h97c33.4,0,58.5,8,75.2,24c16.7,16,25.1,37.3,25.1,63.7
			c0,24-6.7,43.3-20.1,57.9c-13.4,14.6-32.7,23.8-58.1,27.4l80.3,121.6H1648.5z M1530.2,832.4h55.6c43.2,0,64.8-18.9,64.8-56.8
			c0-37.9-21.6-56.8-64.8-56.8h-55.6V832.4z"/>
		<path d="M1745.4,750.9l74.4,180.6l69-180.6h42.2L1794.7,1089h-43.1l47.6-112.4l-96.6-225.7H1745.4z"/>
		<path d="M1997.5,950.7h104.5v29.7h-142.5V685.7h38V950.7z"/>
		<path d="M2343.9,873.7h-183.5c0.8,26.2,8.3,45.8,22.4,58.9c14.1,13.1,31.3,19.6,51.6,19.6c18.4,0,33.8-4.7,46.2-14
			c12.4-9.3,20-21.8,22.8-37.4h40.5c-2.8,15.9-9,30.1-18.6,42.6c-9.6,12.5-22.1,22.3-37.4,29.3c-15.3,7-32.6,10.4-51.8,10.4
			c-22,0-41.5-4.7-58.5-14.2c-17-9.5-30.3-23.1-39.9-40.8c-9.6-17.7-14.4-38.5-14.4-62.5c0-24,4.8-44.9,14.4-62.7
			c9.6-17.8,22.9-31.5,39.9-41c17-9.5,36.5-14.2,58.5-14.2c22.3,0,41.7,4.7,58.3,14.2c16.6,9.5,29.3,22.2,38,38
			c8.8,15.9,13.2,33.4,13.2,52.7C2345.6,860.9,2345.1,867.9,2343.9,873.7z M2298.8,812.7c-6.4-11.4-15.2-19.9-26.3-25.5
			c-11.1-5.6-23.3-8.4-36.4-8.4c-20.9,0-38.5,6.5-52.7,19.4c-14.2,13-21.9,32-23,57.1h146.7C2308,838.4,2305.2,824.2,2298.8,812.7z"
			/>
		<path d="M2539.8,764.7c15.5,11.1,26.3,26.1,32.4,44.7v-58.5h38v229.5h-38v-58.5c-6.1,18.7-16.9,33.6-32.4,44.7
			c-15.5,11.1-34.3,16.7-56.6,16.7c-20.3,0-38.5-4.7-54.3-14.2c-15.9-9.5-28.4-23.1-37.4-40.8c-9.1-17.7-13.6-38.5-13.6-62.5
			c0-24,4.5-44.9,13.6-62.7c9.1-17.8,21.5-31.5,37.4-41c15.9-9.5,34-14.2,54.3-14.2C2505.4,747.9,2524.3,753.5,2539.8,764.7z
			 M2437.8,804.2c-14.1,14.9-21.1,35.5-21.1,61.7c0,26.2,7,46.7,21.1,61.6c14.1,14.9,32.8,22.4,56.2,22.4c15,0,28.5-3.5,40.3-10.4
			c11.8-7,21.1-16.8,27.8-29.5c6.7-12.7,10-27.4,10-44.1c0-16.7-3.3-31.5-10-44.3c-6.7-12.8-16-22.6-27.8-29.5
			c-11.8-6.8-25.3-10.2-40.3-10.2C2470.6,781.8,2451.8,789.3,2437.8,804.2z"/>
		<path d="M2815.2,764.7c15.5,11.1,26.3,26.1,32.4,44.7V671h38v309.3h-38v-58.5c-6.1,18.7-16.9,33.6-32.4,44.7
			c-15.5,11.1-34.3,16.7-56.6,16.7c-20.3,0-38.5-4.7-54.3-14.2c-15.9-9.5-28.4-23.1-37.4-40.8c-9.1-17.7-13.6-38.5-13.6-62.5
			c0-24,4.5-44.9,13.6-62.7c9.1-17.8,21.5-31.5,37.4-41c15.9-9.5,34-14.2,54.3-14.2C2780.9,747.9,2799.7,753.5,2815.2,764.7z
			 M2713.2,804.2c-14.1,14.9-21.1,35.5-21.1,61.7c0,26.2,7,46.7,21.1,61.6c14.1,14.9,32.8,22.4,56.2,22.4c15,0,28.5-3.5,40.3-10.4
			c11.8-7,21.1-16.8,27.8-29.5c6.7-12.7,10-27.4,10-44.1c0-16.7-3.3-31.5-10-44.3c-6.7-12.8-16-22.6-27.8-29.5
			c-11.8-6.8-25.3-10.2-40.3-10.2C2746,781.8,2727.3,789.3,2713.2,804.2z"/>
		<path d="M3074.3,768.2c15.7,13.5,25.3,31.7,28.6,54.5h-36.4c-1.7-13.7-7.3-24.9-16.9-33.6c-9.6-8.8-22.5-13.2-38.7-13.2
			c-13.7,0-24.3,3.3-32,9.8c-7.7,6.6-11.5,15.4-11.5,26.5c0,8.4,2.6,15.1,7.7,20.3c5.2,5.2,11.6,9.1,19.2,11.7
			c7.7,2.7,18.2,5.5,31.6,8.6c17,3.9,30.7,7.9,41.2,11.9c10.4,4,19.4,10.5,26.8,19.4c7.4,8.9,11.1,20.9,11.1,35.9
			c0,18.7-7,33.9-21.1,45.6c-14.1,11.7-32.8,17.6-56.2,17.6c-27.3,0-49.6-6.5-66.9-19.6c-17.3-13.1-27.4-31.3-30.5-54.8h36.8
			c1.4,13.9,7.5,25.2,18.2,33.9c10.7,8.6,24.9,13,42.4,13c13.1,0,23.3-3.3,30.7-10c7.4-6.7,11.1-15.5,11.1-26.3
			c0-8.9-2.7-16-7.9-21.3c-5.3-5.3-11.8-9.3-19.6-12.1c-7.8-2.8-18.5-5.7-32.2-8.8c-17-3.9-30.6-7.8-40.8-11.7
			c-10.2-3.9-18.8-10.1-25.9-18.6c-7.1-8.5-10.7-20-10.7-34.5c0-19.2,7.1-34.8,21.3-46.6c14.2-11.8,33.6-17.8,58.1-17.8
			C3037.8,747.9,3058.6,754.7,3074.3,768.2z"/>
	</g>
</g>
</svg>
